<svg xmlns="http://www.w3.org/2000/svg" width="16" height="16" viewBox="0 0 16 16">
    <g fill="none" fill-rule="evenodd">
        <g>
            <g>
                <g>
                    <path d="M0 0L16 0 16 16 0 16z" transform="translate(-1225.000000, -496.000000) translate(1201.000000, 124.001867) translate(24.000000, 372.000000)"/>
                    <path fill="#434B57" fill-rule="nonzero" d="M3.642 2.955C4.852 1.907 6.399 1.331 8 1.333c3.682 0 6.667 2.985 6.667 6.667 0 1.424-.447 2.744-1.207 3.827L11.333 8h2c0-2.137-1.275-4.068-3.242-4.907-1.966-.838-4.242-.421-5.784 1.059l-.665-1.197zm8.716 10.09c-1.21 1.048-2.757 1.624-4.358 1.622-3.682 0-6.667-2.985-6.667-6.667 0-1.424.447-2.744 1.207-3.827L4.667 8h-2c0 2.137 1.275 4.068 3.242 4.907 1.966.838 4.242.421 5.784-1.059l.665 1.197z" transform="translate(-1225.000000, -496.000000) translate(1201.000000, 124.001867) translate(24.000000, 372.000000)"/>
                </g>
            </g>
        </g>
    </g>
</svg>
